# xmcd
#
# Track frame offsets:
#	182
#	16705
#	34125
#	49820
#	67065
#	82355
#	100452
#	116702
#	132712
#	149140
#	167030
#	184587
#	200245
#	214880
#	232080
#	252492
#	271637
#	292690
#
# Disc length: 4131 seconds
#
# Revision: 1
# Processed by: cddbd v1.5.2PL0 Copyright (c) Steve Scherf et al.
# Submitted via: audiograbber 1.83.01
#
DISCID=22102112
DTITLE=Bonnie Tyler - Golden Stars Vol. 2
DYEAR=1900
DGENRE=
TTITLE0=Against the wind
TTITLE1=Fools Lullaby
TTITLE2=Call me
TTITLE3=Angel heart
TTITLE4=Clouds in my coffee
TTITLE5=Silhouette in red
TTITLE6=I climb every mountain
TTITLE7=From the bottom of my lonely heart
TTITLE8=all we have is tonight
TTITLE9=Why
TTITLE10=You´re the greates love
TTITLE11=too hot
TTITLE12=James Dean
TTITLE13=Tell me the truth
TTITLE14=god gave love to you
TTITLE15=born to be a winner
TTITLE16=fire in my soul
TTITLE17=Bitterblue
EXTD=
EXTT0=
EXTT1=
EXTT2=
EXTT3=
EXTT4=
EXTT5=
EXTT6=
EXTT7=
EXTT8=
EXTT9=
EXTT10=
EXTT11=
EXTT12=
EXTT13=
EXTT14=
EXTT15=
EXTT16=
EXTT17=
PLAYORDER=
